# Blender v2.80 (sub 75) OBJ File: ''
# www.blender.org
mtllib kal.mtl
o Cube
v 1.000000 0.548401 -1.000000
v 1.000000 -0.332126 -1.000000
v 1.000000 0.548401 1.000000
v 1.000000 -0.332126 1.000000
v -1.000000 0.548401 -1.000000
v -1.000000 -0.332126 -1.000000
v -1.000000 0.548401 1.000000
v -1.000000 -0.332126 1.000000
v 2.942700 -0.023318 -1.483212
v -1.276001 0.000000 1.561340
v 3.178996 0.000000 1.561340
v -1.236296 0.044169 -1.483212
v -1.000000 -0.332126 0.000000
v 1.000000 0.548401 0.000000
v -1.000000 0.548401 0.000000
v 1.000000 -0.332126 0.000000
v 4.730229 0.000000 0.000000
v -1.265642 0.026510 0.000000
vt 0.212111 0.822460
vt 0.023810 0.821830
vt 0.061400 0.743929
vt 0.211061 0.751875
vt 0.395267 0.778881
vt 0.102817 0.670764
vt 0.743090 0.490970
vt 0.739042 0.550803
vt 0.603673 0.538955
vt 0.524467 0.528288
vt 0.539002 0.626866
vt 0.355981 0.626395
vt 0.356309 0.551538
vt 0.497299 0.550110
vt 0.532592 0.824308
vt 0.105580 0.968325
vt 0.060943 0.894927
vt 0.210625 0.893083
vt 0.377521 0.869522
vt 0.496975 0.703847
vt 0.457239 0.770057
vt 0.189033 0.670859
vt 0.356644 0.700967
vt 0.033444 0.625322
vt 0.174530 0.576762
vt 0.742722 0.425226
vt 0.742722 0.489401
vt 0.512057 0.523723
vt 0.598930 0.489226
vt 0.461106 0.480778
vt 0.886514 0.489226
vt 0.967258 0.527285
vt 0.962344 0.528009
vt 0.891210 0.544172
vn 0.0000 1.0000 0.0000
vn 0.0000 0.7153 0.6988
vn -0.8969 0.4422 -0.0075
vn 0.0000 -1.0000 0.0000
vn 0.1719 0.9796 0.1041
vn 0.0074 0.6747 -0.7381
vn -0.0088 -0.8084 -0.5886
vn 0.1055 -0.9924 0.0639
vn -0.8215 -0.5701 -0.0138
vn 0.0000 -0.8606 0.5092
vn -0.7906 -0.6122 -0.0095
vn 0.1064 -0.9921 -0.0672
vn 0.1804 0.9737 -0.1390
vn -0.8920 0.4520 0.0011
usemtl Material
s off
f 14/1/1 15/2/1 7/3/1 3/4/1
f 11/5/2 3/4/2 7/3/2 10/6/2
f 18/7/3 15/8/3 5/9/3 12/10/3
f 13/11/4 16/12/4 4/13/4 8/14/4
f 17/15/5 14/1/5 3/4/5 11/5/5
f 12/16/6 5/17/6 1/18/6 9/19/6
f 6/20/7 12/21/7 9/22/7 2/23/7
f 16/12/8 17/24/8 11/25/8 4/13/8
f 13/26/9 18/27/9 12/28/9 6/29/9
f 4/13/10 11/25/10 10/30/10 8/14/10
f 8/31/11 10/32/11 18/27/11 13/26/11
f 2/23/12 9/22/12 17/24/12 16/12/12
f 9/19/13 1/18/13 14/1/13 17/15/13
f 6/20/4 2/23/4 16/12/4 13/11/4
f 10/33/14 7/34/14 15/8/14 18/7/14
f 1/18/1 5/17/1 15/2/1 14/1/1
o Cube.001
v -0.656987 0.484780 0.282108
v -0.716000 1.681976 0.282108
v -0.656987 0.484780 -0.375182
v -0.716000 1.681976 -0.375182
v 0.000303 0.484780 0.282108
v 0.059316 1.681976 0.282108
v 0.000303 0.484780 -0.375182
v 0.059316 1.681976 -0.375182
v -0.716000 1.083378 0.282108
v -0.716000 1.083378 -0.375182
v 0.059316 1.083378 -0.375182
v 0.059316 1.083378 0.282108
v -0.716000 1.592846 -0.835697
v 0.059316 1.592846 -0.835697
v -0.716000 1.166358 -0.835697
v 0.059316 1.166358 -0.835697
v -0.716000 1.166358 0.763270
v -0.716000 1.592846 0.763270
v 0.059316 1.592846 0.763270
v 0.059316 1.166358 0.763270
vt 0.544894 0.688828
vt 0.545420 0.788439
vt 0.482385 0.789491
vt 0.481859 0.689880
vt 0.500000 0.500000
vt 0.500000 0.250000
vt 0.500000 0.250000
vt 0.500000 0.500000
vt 0.431007 0.774431
vt 0.431007 0.687269
vt 0.587877 0.687269
vt 0.587877 0.774431
vt 0.412221 0.253393
vt 0.454615 0.252655
vt 0.454615 0.252655
vt 0.412221 0.253393
vt 0.497378 0.318909
vt 0.498116 0.452895
vt 0.455723 0.453633
vt 0.454984 0.319648
vt 0.454246 0.185662
vt 0.411852 0.186401
vt 0.573890 0.544474
vt 0.577942 0.423360
vt 0.654585 0.431464
vt 0.650533 0.552578
vt 0.539034 0.184186
vt 0.539403 0.251178
vt 0.497009 0.251917
vt 0.496640 0.184924
vt 0.544368 0.589217
vt 0.481333 0.590269
vt 0.539403 0.251178
vt 0.539772 0.318171
vt 0.497378 0.318909
vt 0.497009 0.251917
vt 0.498116 0.452895
vt 0.484816 0.774431
vt 0.484816 0.687269
vt 0.454428 0.689019
vt 0.454953 0.788630
vt 0.482385 0.789491
vt 0.481859 0.689880
vt 0.454984 0.319648
vt 0.412590 0.320386
vt 0.569879 0.788031
vt 0.567892 0.692398
vt 0.544894 0.688828
vt 0.545420 0.788439
vt 0.539974 0.687269
vt 0.539974 0.774431
vt 0.455723 0.453633
vn -1.0000 0.0000 0.0000
vn 0.0000 -0.9842 -0.1773
vn 1.0000 0.0000 0.0000
vn -0.0000 -0.9855 0.1699
vn 0.0000 1.0000 0.0000
vn 0.0000 0.0000 1.0000
vn 0.9952 -0.0981 0.0000
vn 0.0000 0.0000 -1.0000
vn -0.9952 -0.0981 0.0000
vn 0.0000 0.9818 -0.1900
vn 0.0000 0.9833 0.1821
usemtl Material.001
s off
f 27/35/15 20/36/15 22/37/15 28/38/15
f 29/39/16 28/40/16 33/41/16 34/42/16
f 29/43/17 26/44/17 24/45/17 30/46/17
f 27/47/18 30/48/18 38/49/18 35/50/18
f 26/51/19 22/52/19 20/53/19 24/54/19
f 23/55/20 30/48/20 27/47/20 19/56/20
f 25/57/21 29/58/21 30/59/21 23/60/21
f 21/61/22 28/62/22 29/63/22 25/64/22
f 19/65/23 27/35/23 28/38/23 21/66/23
f 33/67/22 31/68/22 32/69/22 34/70/22
f 22/52/24 26/51/24 32/69/24 31/71/24
f 26/44/17 29/43/17 34/72/17 32/73/17
f 28/74/15 22/75/15 31/76/15 33/77/15
f 38/49/20 37/78/20 36/79/20 35/50/20
f 20/80/15 27/81/15 35/82/15 36/83/15
f 30/46/17 24/45/17 37/84/17 38/85/17
f 24/54/25 20/53/25 36/86/25 37/78/25
